<svg viewBox="0 0 1000 1000" xmlns="http://www.w3.org/2000/svg"><rect width="1000" height="1000" fill="#fff6e9"/><path d="M0 0h1000v330H0z" fill="#caede3"/><path d="M0 670h1000v330H0z" fill="#383838"/><circle cx="500" cy="500" r="278" fill="#4b9ab4"/><circle cx="500" cy="500" r="156" fill="#f5aa5f"/><g fill="none" stroke="#fff6e9" stroke-width="8" stroke-linecap="round"><path d="M500 222v556"/><path d="M222 500h556"/><circle cx="500" cy="500" r="278"/><circle cx="500" cy="500" r="156"/></g><g fill="#fff6e9"><rect x="165" y="178" width="190" height="120" rx="34"/><rect x="645" y="178" width="190" height="120" rx="34"/><rect x="165" y="702" width="190" height="120" rx="34"/><rect x="645" y="702" width="190" height="120" rx="34"/></g><g fill="#383838"><circle cx="260" cy="238" r="24"/><circle cx="740" cy="238" r="24"/><circle cx="260" cy="762" r="24"/><circle cx="740" cy="762" r="24"/></g><g fill="none" stroke="#9bceb5" stroke-width="10" stroke-linecap="round"><path d="M300 238h108c50 0 92 42 92 92v14"/><path d="M700 238H592c-50 0-92 42-92 92v14"/><path d="M300 762h108c50 0 92-42 92-92v-14"/><path d="M700 762H592c-50 0-92-42-92-92v-14"/></g><circle cx="500" cy="500" r="58" fill="#383838"/><g fill="#fff6e9"><circle cx="472" cy="500" r="10"/><circle cx="500" cy="500" r="10"/><circle cx="528" cy="500" r="10"/></g></svg>
