<svg viewBox="0 0 1000 1000" xmlns="http://www.w3.org/2000/svg"><rect width="1000" height="1000" fill="#fff6e9"/><path d="M0 0h1000v300H0z" fill="#caede3"/><path d="M0 700h1000v300H0z" fill="#383838"/><circle cx="500" cy="500" r="330" fill="#4b9ab4"/><circle cx="500" cy="500" r="250" fill="#fff6e9"/><g fill="none" stroke="#fff6e9" stroke-width="8"><circle cx="500" cy="500" r="330"/><path d="M170 330h170M660 330h170M170 670h170M660 670h170"/></g><g fill="#f5aa5f"><rect x="125" y="278" width="130" height="104" rx="30"/><rect x="745" y="278" width="130" height="104" rx="30"/><rect x="125" y="618" width="130" height="104" rx="30"/><rect x="745" y="618" width="130" height="104" rx="30"/></g><g fill="none" stroke="#9bceb5" stroke-width="12" stroke-linecap="round"><path d="M255 330h145"/><path d="M600 330h145"/><path d="M255 670h145"/><path d="M600 670h145"/></g><rect x="330" y="322" width="340" height="356" rx="64" fill="#383838"/><rect x="390" y="382" width="220" height="96" rx="20" fill="#caede3"/><rect x="390" y="522" width="220" height="96" rx="20" fill="#f5aa5f"/><g fill="#383838"><circle cx="430" cy="430" r="13"/><circle cx="470" cy="430" r="13"/><circle cx="510" cy="430" r="13"/><circle cx="550" cy="430" r="13"/></g><g fill="#fff6e9"><circle cx="430" cy="570" r="13"/><circle cx="470" cy="570" r="13"/><circle cx="510" cy="570" r="13"/><circle cx="550" cy="570" r="13"/></g><path d="M500 478v44" stroke="#fff6e9" stroke-width="12" stroke-linecap="round"/></svg>
